<svg width="1440" height="1471" viewBox="0 0 1440 1471" fill="none" xmlns="http://www.w3.org/2000/svg">
<path d="M122.474 1010V219.396" stroke="#4F4F4F" stroke-width="2"/>
<path d="M229.392 1117.31L1458.16 1117.31" stroke="#4F4F4F" stroke-width="2"/>
<path d="M122.475 563.109C215.813 515.025 444.067 463.831 610.378 643.719C776.69 823.607 723.044 1033.57 675.432 1116.07" stroke="#4F4F4F" stroke-width="2"/>
<path fill-rule="evenodd" clip-rule="evenodd" d="M231.488 1116.54C230.808 1116.62 230.126 1116.7 229.445 1116.77C226.888 1136.93 217.866 1156.44 202.378 1171.93C165.278 1209.03 105.127 1209.03 68.0275 1171.93C30.9277 1134.83 30.9277 1074.68 68.0275 1037.58C83.5156 1022.09 103.021 1013.07 123.189 1010.51C123.258 1009.83 123.334 1009.15 123.416 1008.47C102.653 1010.99 82.5502 1020.23 66.6133 1036.16C28.7324 1074.04 28.7324 1135.46 66.6133 1173.34C104.494 1211.22 165.911 1211.22 203.792 1173.34C219.729 1157.41 228.961 1137.3 231.488 1116.54Z" fill="#4F4F4F"/>
<mask id="path-5-inside-1" fill="white">
<path fill-rule="evenodd" clip-rule="evenodd" d="M175.395 763.316C194.725 763.316 210.395 747.646 210.395 728.316C210.395 722.948 209.187 717.862 207.027 713.316H456.763C454.604 717.862 453.395 722.948 453.395 728.316C453.395 747.646 469.065 763.316 488.395 763.316C492.799 763.316 497.013 762.502 500.895 761.018V1028.61C497.013 1027.13 492.799 1026.32 488.395 1026.32C469.065 1026.32 453.395 1041.99 453.395 1061.32H210.395C210.395 1041.99 194.725 1026.32 175.395 1026.32C170.991 1026.32 166.777 1027.13 162.895 1028.61V761.018C166.777 762.502 170.991 763.316 175.395 763.316Z"/>
</mask>
<path d="M207.027 713.316V712.316H205.445L206.124 713.745L207.027 713.316ZM456.763 713.316L457.667 713.745L458.345 712.316H456.763V713.316ZM500.895 761.018H501.895V759.565L500.538 760.084L500.895 761.018ZM500.895 1028.61L500.538 1029.55L501.895 1030.07V1028.61H500.895ZM453.395 1061.32V1062.32H454.395V1061.32H453.395ZM210.395 1061.32H209.395V1062.32H210.395V1061.32ZM162.895 1028.61H161.895V1030.07L163.252 1029.55L162.895 1028.61ZM162.895 761.018L163.252 760.084L161.895 759.565V761.018H162.895ZM209.395 728.316C209.395 747.094 194.173 762.316 175.395 762.316V764.316C195.277 764.316 211.395 748.198 211.395 728.316H209.395ZM206.124 713.745C208.221 718.16 209.395 723.099 209.395 728.316H211.395C211.395 722.796 210.152 717.564 207.93 712.887L206.124 713.745ZM456.763 712.316H207.027V714.316H456.763V712.316ZM454.395 728.316C454.395 723.099 455.569 718.16 457.667 713.745L455.86 712.887C453.638 717.564 452.395 722.796 452.395 728.316H454.395ZM488.395 762.316C469.617 762.316 454.395 747.094 454.395 728.316H452.395C452.395 748.198 468.513 764.316 488.395 764.316V762.316ZM500.538 760.084C496.768 761.526 492.675 762.316 488.395 762.316V764.316C492.923 764.316 497.258 763.479 501.252 761.952L500.538 760.084ZM501.895 1028.61V761.018H499.895V1028.61H501.895ZM488.395 1027.32C492.675 1027.32 496.768 1028.11 500.538 1029.55L501.252 1027.68C497.258 1026.15 492.923 1025.32 488.395 1025.32V1027.32ZM454.395 1061.32C454.395 1042.54 469.617 1027.32 488.395 1027.32V1025.32C468.513 1025.32 452.395 1041.43 452.395 1061.32H454.395ZM210.395 1062.32H453.395V1060.32H210.395V1062.32ZM175.395 1027.32C194.173 1027.32 209.395 1042.54 209.395 1061.32H211.395C211.395 1041.43 195.277 1025.32 175.395 1025.32V1027.32ZM163.252 1029.55C167.022 1028.11 171.115 1027.32 175.395 1027.32V1025.32C170.867 1025.32 166.532 1026.15 162.538 1027.68L163.252 1029.55ZM161.895 761.018V1028.61H163.895V761.018H161.895ZM175.395 762.316C171.115 762.316 167.022 761.526 163.252 760.084L162.538 761.952C166.532 763.479 170.867 764.316 175.395 764.316V762.316Z" fill="#4F4F4F" mask="url(#path-5-inside-1)"/>
<path d="M500.895 1208.18V1164.18H386.895V1208.18" stroke="#4F4F4F" stroke-width="2"/>
<path d="M36.0228 827.316L80.0228 827.316L80.0228 713.316L36.0228 713.316" stroke="#4F4F4F" stroke-width="2"/>
<circle cx="331.895" cy="887.316" r="47.5" stroke="#4F4F4F"/>
<path d="M137.675 220V1100.18H1445.68" stroke="#4F4F4F" stroke-width="2"/>
<rect x="135.534" y="1054.66" width="23.6523" height="58" transform="rotate(38.1299 135.534 1054.66)" fill="black" stroke="#4F4F4F"/>
<rect x="165.955" y="1078.54" width="23.6523" height="58" transform="rotate(38.1299 165.955 1078.54)" fill="black" stroke="#4F4F4F"/>
<rect x="135.918" y="1085.48" width="23.6523" height="58" transform="rotate(38.1299 135.918 1085.48)" fill="black" stroke="#4F4F4F"/>
</svg>
